<?xml version="1.0" encoding="UTF-8" standalone="no"?>
<!DOCTYPE svg PUBLIC "-//W3C//DTD SVG 1.1//EN"
 "http://www.w3.org/Graphics/SVG/1.1/DTD/svg11.dtd">
<!-- Generated by graphviz version 2.40.1 (20161225.0304)
 -->
<!-- Title: G Pages: 1 -->
<svg width="306pt" height="370pt"
 viewBox="0.00 0.00 305.50 370.00" xmlns="http://www.w3.org/2000/svg" xmlns:xlink="http://www.w3.org/1999/xlink">
<g id="graph0" class="graph" transform="scale(1 1) rotate(0) translate(4 366)">
<title>G</title>
<polygon fill="#ffffff" stroke="transparent" points="-4,4 -4,-366 301.5,-366 301.5,4 -4,4"/>
<!-- A0 -->
<g id="node1" class="node">
<title>A0</title>
<polygon fill="none" stroke="#000000" points="33,-266 33,-298 104,-298 104,-266 33,-266"/>
<text text-anchor="start" x="42.8045" y="-279" font-family="Helvetica,sans-Serif" font-size="10.00" fill="#000000">+iCustomer</text>
<polygon fill="none" stroke="#000000" points="33,-234 33,-266 104,-266 104,-234 33,-234"/>
<text text-anchor="start" x="52.6685" y="-247" font-family="Helvetica,sans-Serif" font-size="10.00" fill="#000000">Greet()</text>
</g>
<!-- A1 -->
<g id="node2" class="node">
<title>A1</title>
<polygon fill="none" stroke="#000000" points="0,-88 0,-120 136,-120 136,-88 0,-88"/>
<text text-anchor="start" x="43.414" y="-101" font-family="Helvetica,sans-Serif" font-size="10.00" fill="#000000">+Customer</text>
<polygon fill="none" stroke="#000000" points="0,-32 0,-88 136,-88 136,-32 0,-32"/>
<text text-anchor="start" x="38.9655" y="-69" font-family="Helvetica,sans-Serif" font-size="10.00" fill="#000000">+name:string</text>
<text text-anchor="start" x="18.835" y="-57" font-family="Helvetica,sans-Serif" font-size="10.00" fill="#000000">&#45;creditCardNumber:int</text>
<text text-anchor="start" x="9.5265" y="-45" font-family="Helvetica,sans-Serif" font-size="10.00" fill="#000000">+CreditCardNumber:string</text>
<polygon fill="none" stroke="#000000" points="0,0 0,-32 136,-32 136,0 0,0"/>
<text text-anchor="start" x="52.1685" y="-13" font-family="Helvetica,sans-Serif" font-size="10.00" fill="#000000">Greet()</text>
</g>
<!-- A0&#45;&gt;A1 -->
<g id="edge1" class="edge">
<title>A0&#45;&gt;A1</title>
<path fill="none" stroke="#000000" d="M68,-223.7165C68,-193.8411 68,-153.3672 68,-120.1375"/>
<polygon fill="none" stroke="#000000" points="64.5001,-223.8125 68,-233.8125 71.5001,-223.8125 64.5001,-223.8125"/>
</g>
<!-- A2 -->
<g id="node3" class="node">
<title>A2</title>
<polygon fill="none" stroke="#000000" points="156,-330 156,-362 296,-362 296,-330 156,-330"/>
<text text-anchor="start" x="198.915" y="-343" font-family="Helvetica,sans-Serif" font-size="10.00" fill="#000000">+A:HotDrink</text>
<polygon fill="none" stroke="#000000" points="156,-250 156,-330 296,-330 296,-250 156,-250"/>
<text text-anchor="start" x="197.516" y="-311" font-family="Helvetica,sans-Serif" font-size="10.00" fill="#000000">+instant:bool</text>
<text text-anchor="start" x="203.3595" y="-299" font-family="Helvetica,sans-Serif" font-size="10.00" fill="#000000">+milk:bool</text>
<text text-anchor="start" x="200.9945" y="-287" font-family="Helvetica,sans-Serif" font-size="10.00" fill="#000000">&#45;sugar:byte</text>
<text text-anchor="start" x="196.686" y="-275" font-family="Helvetica,sans-Serif" font-size="10.00" fill="#000000">+brand:string</text>
<text text-anchor="start" x="200.5795" y="-263" font-family="Helvetica,sans-Serif" font-size="10.00" fill="#000000">+size:string</text>
<polygon fill="none" stroke="#000000" points="156,-170 156,-250 296,-250 296,-170 156,-170"/>
<text text-anchor="start" x="179.4675" y="-231" font-family="Helvetica,sans-Serif" font-size="10.00" fill="#000000">+customer:Customer</text>
<text text-anchor="start" x="200.31" y="-219" font-family="Helvetica,sans-Serif" font-size="10.00" fill="#000000">+HotDrink()</text>
<text text-anchor="start" x="173.9155" y="-207" font-family="Helvetica,sans-Serif" font-size="10.00" fill="#000000">+HotDrink(brand:string)</text>
<text text-anchor="start" x="165.8415" y="-195" font-family="Helvetica,sans-Serif" font-size="10.00" fill="#000000">+AddSugar(amount:byte):a</text>
<text text-anchor="start" x="201.135" y="-183" font-family="Helvetica,sans-Serif" font-size="10.00" fill="#000000">+Steam():a</text>
</g>
<!-- A3 -->
<g id="node4" class="node">
<title>A3</title>
<polygon fill="none" stroke="#000000" points="155,-88 155,-120 298,-120 298,-88 155,-88"/>
<text text-anchor="start" x="194.406" y="-101" font-family="Helvetica,sans-Serif" font-size="10.00" fill="#000000">+CupOfCoffee</text>
<polygon fill="none" stroke="#000000" points="155,-56 155,-88 298,-88 298,-56 155,-56"/>
<text text-anchor="start" x="187.737" y="-69" font-family="Helvetica,sans-Serif" font-size="10.00" fill="#000000">+beanType:string</text>
<polygon fill="none" stroke="#000000" points="155,0 155,-56 298,-56 298,0 155,0"/>
<text text-anchor="start" x="191.077" y="-37" font-family="Helvetica,sans-Serif" font-size="10.00" fill="#000000">+CupOfCoffee()</text>
<text text-anchor="start" x="164.6825" y="-25" font-family="Helvetica,sans-Serif" font-size="10.00" fill="#000000">+CupOfCoffee(brand:string)</text>
<text text-anchor="start" x="201.635" y="-13" font-family="Helvetica,sans-Serif" font-size="10.00" fill="#000000">+Steam():o</text>
</g>
<!-- A2&#45;&gt;A3 -->
<g id="edge2" class="edge">
<title>A2&#45;&gt;A3</title>
<path fill="none" stroke="#000000" d="M226,-159.5652C226,-146.0036 226,-132.5215 226,-120.0606"/>
<polygon fill="none" stroke="#000000" points="222.5001,-159.9357 226,-169.9358 229.5001,-159.9358 222.5001,-159.9357"/>
</g>
</g>
</svg>
